<svg height="17" viewBox="0 0 19 17" width="19" xmlns="http://www.w3.org/2000/svg">
  <path d="m127.109 1472.36h-12.1l-2.41 2.38a.894.894 0 0 1 -.63.26h-.011a.87.87 0 0 1 -.619-.26s-.006-.01-.01-.01a1.494 1.494 0 0 1 -.1-.12.188.188 0 0 1 -.03-.05.519.519 0 0 1 -.052-.1.226.226 0 0 1 -.016-.05.568.568 0 0 1 -.036-.11.916.916 0 0 1 -.018-.18v-1.76h-1.187a.883.883 0 0 1 -.89-.88v-12.6a.883.883 0 0 1 .89-.88h17.219a.883.883 0 0 1 .891.88v12.6a.883.883 0 0 1 -.891.88z" fill="#e5e5e5" fill-rule="evenodd" transform="translate(-109 -1458)"/>
</svg>
